<?xml version="1.0" encoding="UTF-8"?>
<svg version="1.1" xmlns="http://www.w3.org/2000/svg" width="107" height="102">
<path d="M0 0 C35.31 0 70.62 0 107 0 C107 33.66 107 67.32 107 102 C71.69 102 36.38 102 0 102 C0 68.34 0 34.68 0 0 Z " fill="#EEEFEF" transform="translate(0,0)"/>
<path d="M0 0 C9.89723524 7.03136914 15.03915893 16.71492154 17.4453125 28.4609375 C18.73377528 38.03806807 16.23949233 47.35433298 11.6328125 55.7734375 C10.9109375 56.6603125 10.1890625 57.5471875 9.4453125 58.4609375 C8.97609375 59.09386719 8.506875 59.72679688 8.0234375 60.37890625 C2.28173179 67.66540421 -5.62336356 72.09074297 -14.5546875 74.4609375 C-27.78953378 75.84660754 -39.06317191 74.67168334 -49.67578125 66.16015625 C-59.12214396 57.61718789 -63.77041999 49.02662456 -64.8125 36.31640625 C-65.22103972 24.83644 -61.82932304 15.35215872 -54.5546875 6.4609375 C-39.87973393 -9.22608183 -18.04288953 -10.86987534 0 0 Z " fill="#089788" transform="translate(77.5546875,19.5390625)"/>
<path d="M0 0 C35.31 0 70.62 0 107 0 C107 33.66 107 67.32 107 102 C105.35 102 103.7 102 102 102 C102 69.33 102 36.66 102 3 C69.66 3 37.32 3 4 3 C4 35.67 4 68.34 4 102 C2.68 102 1.36 102 0 102 C0 68.34 0 34.68 0 0 Z " fill="#FEFEFE" transform="translate(0,0)"/>
<path d="M0 0 C0.33 0 0.66 0 1 0 C1 8.25 1 16.5 1 25 C5.29 25 9.58 25 14 25 C12.39893473 29.8031958 10.5793381 34.10576538 8.3046875 38.5859375 C7.95238068 39.28772125 7.60007385 39.989505 7.23709106 40.71255493 C6.12016304 42.93529034 4.99768046 45.15516549 3.875 47.375 C3.11291144 48.88913684 2.35118888 50.40345796 1.58984375 51.91796875 C-0.26921035 55.61412431 -2.13324843 59.3077265 -4 63 C-4.33 63 -4.66 63 -5 63 C-5 55.08 -5 47.16 -5 39 C-9.62 39 -14.24 39 -19 39 C-17.60834135 34.82502404 -16.29723468 31.34667251 -14.35546875 27.48046875 C-13.58686523 25.94616211 -13.58686523 25.94616211 -12.80273438 24.38085938 C-12.00319336 22.80014648 -12.00319336 22.80014648 -11.1875 21.1875 C-10.66607422 20.14529297 -10.14464844 19.10308594 -9.60742188 18.02929688 C-6.54423631 11.93734355 -3.37167023 5.92696225 0 0 Z " fill="#ECEFEF" transform="translate(57,22)"/>
</svg>
